<mxfile host="app.diagrams.net" agent="Mozilla/5.0 (Windows NT 10.0; Win64; x64) AppleWebKit/537.36 (KHTML, like Gecko) Chrome/138.0.0.0 Safari/537.36 Edg/138.0.0.0" version="27.2.0">
  <diagram name="Страница — 1" id="FK4JzvHE_-WM_q0Xc-W2">
    <mxGraphModel dx="1825" dy="1024" grid="0" gridSize="10" guides="1" tooltips="1" connect="1" arrows="1" fold="1" page="1" pageScale="1" pageWidth="9000" pageHeight="1600" math="0" shadow="0">
      <root>
        <mxCell id="0" />
        <mxCell id="1" parent="0" />
        <mxCell id="EzVEjvL53w5DnFk80F0e-1" value="" style="ellipse;html=1;shape=startState;fillColor=#000000;strokeColor=#ff0000;" vertex="1" parent="1">
          <mxGeometry x="4185" y="580" width="30" height="30" as="geometry" />
        </mxCell>
        <mxCell id="EzVEjvL53w5DnFk80F0e-2" value="" style="edgeStyle=orthogonalEdgeStyle;html=1;verticalAlign=bottom;endArrow=open;endSize=8;strokeColor=#ff0000;rounded=0;entryX=0.5;entryY=0;entryDx=0;entryDy=0;" edge="1" source="EzVEjvL53w5DnFk80F0e-1" parent="1" target="EzVEjvL53w5DnFk80F0e-19">
          <mxGeometry relative="1" as="geometry">
            <mxPoint x="4180" y="620" as="targetPoint" />
            <Array as="points">
              <mxPoint x="4200" y="625" />
            </Array>
          </mxGeometry>
        </mxCell>
        <mxCell id="EzVEjvL53w5DnFk80F0e-3" value="" style="endArrow=none;html=1;rounded=0;" edge="1" parent="1">
          <mxGeometry width="50" height="50" relative="1" as="geometry">
            <mxPoint x="4110" y="720" as="sourcePoint" />
            <mxPoint x="4110" y="480" as="targetPoint" />
          </mxGeometry>
        </mxCell>
        <mxCell id="EzVEjvL53w5DnFk80F0e-4" value="" style="endArrow=none;html=1;rounded=0;" edge="1" parent="1">
          <mxGeometry width="50" height="50" relative="1" as="geometry">
            <mxPoint x="5160" y="480" as="sourcePoint" />
            <mxPoint x="4105" y="480" as="targetPoint" />
          </mxGeometry>
        </mxCell>
        <mxCell id="EzVEjvL53w5DnFk80F0e-6" value="" style="endArrow=none;html=1;rounded=0;" edge="1" parent="1">
          <mxGeometry width="50" height="50" relative="1" as="geometry">
            <mxPoint x="5165" y="730" as="sourcePoint" />
            <mxPoint x="4115" y="730" as="targetPoint" />
          </mxGeometry>
        </mxCell>
        <mxCell id="EzVEjvL53w5DnFk80F0e-7" value="" style="endArrow=none;html=1;rounded=0;" edge="1" parent="1">
          <mxGeometry width="50" height="50" relative="1" as="geometry">
            <mxPoint x="4110" y="920" as="sourcePoint" />
            <mxPoint x="4110" y="720" as="targetPoint" />
          </mxGeometry>
        </mxCell>
        <mxCell id="EzVEjvL53w5DnFk80F0e-8" value="" style="endArrow=none;html=1;rounded=0;" edge="1" parent="1">
          <mxGeometry width="50" height="50" relative="1" as="geometry">
            <mxPoint x="5160" y="920" as="sourcePoint" />
            <mxPoint x="4110" y="920" as="targetPoint" />
          </mxGeometry>
        </mxCell>
        <mxCell id="EzVEjvL53w5DnFk80F0e-11" value="" style="ellipse;html=1;shape=endState;fillColor=#000000;strokeColor=#ff0000;" vertex="1" parent="1">
          <mxGeometry x="4980" y="810" width="30" height="30" as="geometry" />
        </mxCell>
        <mxCell id="EzVEjvL53w5DnFk80F0e-12" value="" style="endArrow=none;html=1;rounded=0;" edge="1" parent="1">
          <mxGeometry width="50" height="50" relative="1" as="geometry">
            <mxPoint x="5160" y="920" as="sourcePoint" />
            <mxPoint x="5160" y="700" as="targetPoint" />
          </mxGeometry>
        </mxCell>
        <mxCell id="EzVEjvL53w5DnFk80F0e-13" value="" style="endArrow=none;html=1;rounded=0;" edge="1" parent="1">
          <mxGeometry width="50" height="50" relative="1" as="geometry">
            <mxPoint x="5160" y="700" as="sourcePoint" />
            <mxPoint x="5160" y="480" as="targetPoint" />
          </mxGeometry>
        </mxCell>
        <mxCell id="EzVEjvL53w5DnFk80F0e-19" value="Выбор элемента" style="rounded=1;whiteSpace=wrap;html=1;arcSize=40;fontColor=#000000;fillColor=#ffffc0;strokeColor=#ff0000;" vertex="1" parent="1">
          <mxGeometry x="4140" y="670" width="120" height="40" as="geometry" />
        </mxCell>
        <mxCell id="EzVEjvL53w5DnFk80F0e-20" value="" style="edgeStyle=orthogonalEdgeStyle;html=1;verticalAlign=bottom;endArrow=open;endSize=8;strokeColor=#ff0000;rounded=0;entryX=0.5;entryY=0;entryDx=0;entryDy=0;" edge="1" source="EzVEjvL53w5DnFk80F0e-19" parent="1" target="EzVEjvL53w5DnFk80F0e-30">
          <mxGeometry relative="1" as="geometry">
            <mxPoint x="4320" y="660" as="targetPoint" />
            <Array as="points">
              <mxPoint x="4200" y="740" />
              <mxPoint x="4200" y="740" />
            </Array>
          </mxGeometry>
        </mxCell>
        <mxCell id="EzVEjvL53w5DnFk80F0e-22" value="" style="endArrow=none;html=1;rounded=0;" edge="1" parent="1">
          <mxGeometry width="50" height="50" relative="1" as="geometry">
            <mxPoint x="4030" y="920" as="sourcePoint" />
            <mxPoint x="4030" y="720" as="targetPoint" />
          </mxGeometry>
        </mxCell>
        <mxCell id="EzVEjvL53w5DnFk80F0e-23" value="" style="endArrow=none;html=1;rounded=0;" edge="1" parent="1">
          <mxGeometry width="50" height="50" relative="1" as="geometry">
            <mxPoint x="4030" y="720" as="sourcePoint" />
            <mxPoint x="4030" y="480" as="targetPoint" />
          </mxGeometry>
        </mxCell>
        <mxCell id="EzVEjvL53w5DnFk80F0e-24" value="" style="endArrow=none;html=1;rounded=0;fontStyle=1" edge="1" parent="1">
          <mxGeometry width="50" height="50" relative="1" as="geometry">
            <mxPoint x="4030" y="920" as="sourcePoint" />
            <mxPoint x="4120" y="920" as="targetPoint" />
          </mxGeometry>
        </mxCell>
        <mxCell id="EzVEjvL53w5DnFk80F0e-26" value="" style="endArrow=none;html=1;rounded=0;" edge="1" parent="1">
          <mxGeometry width="50" height="50" relative="1" as="geometry">
            <mxPoint x="4030" y="480" as="sourcePoint" />
            <mxPoint x="4119" y="480" as="targetPoint" />
          </mxGeometry>
        </mxCell>
        <mxCell id="EzVEjvL53w5DnFk80F0e-27" value="" style="endArrow=none;html=1;rounded=0;" edge="1" parent="1">
          <mxGeometry width="50" height="50" relative="1" as="geometry">
            <mxPoint x="4030" y="730" as="sourcePoint" />
            <mxPoint x="4120" y="730" as="targetPoint" />
          </mxGeometry>
        </mxCell>
        <mxCell id="EzVEjvL53w5DnFk80F0e-28" value="Пользователь" style="text;html=1;align=center;verticalAlign=middle;resizable=0;points=[];autosize=1;strokeColor=none;fillColor=none;rotation=-90;" vertex="1" parent="1">
          <mxGeometry x="4020" y="600" width="100" height="30" as="geometry" />
        </mxCell>
        <mxCell id="EzVEjvL53w5DnFk80F0e-29" value="Компьютер" style="text;html=1;align=center;verticalAlign=middle;resizable=0;points=[];autosize=1;strokeColor=none;fillColor=none;rotation=-90;" vertex="1" parent="1">
          <mxGeometry x="4025" y="800" width="90" height="30" as="geometry" />
        </mxCell>
        <mxCell id="EzVEjvL53w5DnFk80F0e-30" value="Случайный элемент" style="rounded=1;whiteSpace=wrap;html=1;arcSize=40;fontColor=#000000;fillColor=#ffffc0;strokeColor=#ff0000;" vertex="1" parent="1">
          <mxGeometry x="4140" y="810" width="120" height="40" as="geometry" />
        </mxCell>
        <mxCell id="EzVEjvL53w5DnFk80F0e-32" value="" style="edgeStyle=orthogonalEdgeStyle;html=1;verticalAlign=bottom;endArrow=open;endSize=8;strokeColor=#ff0000;rounded=0;exitX=1;exitY=0.5;exitDx=0;exitDy=0;" edge="1" parent="1" source="EzVEjvL53w5DnFk80F0e-30">
          <mxGeometry relative="1" as="geometry">
            <mxPoint x="4360" y="830" as="targetPoint" />
            <mxPoint x="4200.030000000001" y="855.18" as="sourcePoint" />
            <Array as="points">
              <mxPoint x="4340" y="830" />
              <mxPoint x="4340" y="830" />
            </Array>
          </mxGeometry>
        </mxCell>
        <mxCell id="EzVEjvL53w5DnFk80F0e-34" value="Определение&lt;br&gt;победителя" style="rhombus;whiteSpace=wrap;html=1;fontColor=#000000;fillColor=#ffffc0;strokeColor=#ff0000;" vertex="1" parent="1">
          <mxGeometry x="4360" y="790" width="120" height="80" as="geometry" />
        </mxCell>
        <mxCell id="EzVEjvL53w5DnFk80F0e-39" value="" style="ellipse;html=1;shape=endState;fillColor=#000000;strokeColor=#ff0000;" vertex="1" parent="1">
          <mxGeometry x="4750" y="535" width="30" height="30" as="geometry" />
        </mxCell>
        <mxCell id="EzVEjvL53w5DnFk80F0e-41" value="Начисление очков для пользователя" style="rounded=1;whiteSpace=wrap;html=1;arcSize=40;fontColor=#000000;fillColor=#ffffc0;strokeColor=#ff0000;" vertex="1" parent="1">
          <mxGeometry x="4530" y="640" width="120" height="40" as="geometry" />
        </mxCell>
        <mxCell id="EzVEjvL53w5DnFk80F0e-42" value="Начисление очков для компьютера" style="rounded=1;whiteSpace=wrap;html=1;arcSize=40;fontColor=#000000;fillColor=#ffffc0;strokeColor=#ff0000;" vertex="1" parent="1">
          <mxGeometry x="4590" y="870" width="120" height="40" as="geometry" />
        </mxCell>
        <mxCell id="EzVEjvL53w5DnFk80F0e-43" value="" style="edgeStyle=orthogonalEdgeStyle;html=1;verticalAlign=bottom;endArrow=open;endSize=8;strokeColor=#ff0000;rounded=0;exitX=0.5;exitY=1;exitDx=0;exitDy=0;entryX=0;entryY=0.5;entryDx=0;entryDy=0;" edge="1" parent="1" source="EzVEjvL53w5DnFk80F0e-34" target="EzVEjvL53w5DnFk80F0e-42">
          <mxGeometry relative="1" as="geometry">
            <mxPoint x="4560" y="870" as="targetPoint" />
            <mxPoint x="4480" y="971" as="sourcePoint" />
            <Array as="points">
              <mxPoint x="4420" y="890" />
            </Array>
          </mxGeometry>
        </mxCell>
        <mxCell id="EzVEjvL53w5DnFk80F0e-44" value="" style="edgeStyle=orthogonalEdgeStyle;html=1;verticalAlign=bottom;endArrow=open;endSize=8;strokeColor=#ff0000;rounded=0;exitX=1;exitY=0.5;exitDx=0;exitDy=0;entryX=0.5;entryY=1;entryDx=0;entryDy=0;" edge="1" parent="1" source="EzVEjvL53w5DnFk80F0e-34" target="EzVEjvL53w5DnFk80F0e-41">
          <mxGeometry relative="1" as="geometry">
            <mxPoint x="4590" y="600" as="targetPoint" />
            <mxPoint x="4420" y="650" as="sourcePoint" />
            <Array as="points">
              <mxPoint x="4590" y="830" />
            </Array>
          </mxGeometry>
        </mxCell>
        <mxCell id="EzVEjvL53w5DnFk80F0e-45" value="" style="edgeStyle=orthogonalEdgeStyle;html=1;verticalAlign=bottom;endArrow=open;endSize=8;strokeColor=#ff0000;rounded=0;exitX=0.5;exitY=0;exitDx=0;exitDy=0;entryX=0.5;entryY=1;entryDx=0;entryDy=0;" edge="1" parent="1" source="EzVEjvL53w5DnFk80F0e-34" target="EzVEjvL53w5DnFk80F0e-49">
          <mxGeometry relative="1" as="geometry">
            <mxPoint x="4420" y="710" as="targetPoint" />
            <mxPoint x="4400" y="700" as="sourcePoint" />
            <Array as="points" />
          </mxGeometry>
        </mxCell>
        <mxCell id="EzVEjvL53w5DnFk80F0e-46" value="Победа пользователя&lt;br&gt;в раунде." style="text;html=1;align=center;verticalAlign=middle;resizable=0;points=[];autosize=1;strokeColor=none;fillColor=none;" vertex="1" parent="1">
          <mxGeometry x="4450" y="785" width="140" height="40" as="geometry" />
        </mxCell>
        <mxCell id="EzVEjvL53w5DnFk80F0e-48" value="Победа компьютера&lt;br&gt;в раунде." style="text;html=1;align=center;verticalAlign=middle;resizable=0;points=[];autosize=1;strokeColor=none;fillColor=none;" vertex="1" parent="1">
          <mxGeometry x="4460" y="850" width="140" height="40" as="geometry" />
        </mxCell>
        <mxCell id="EzVEjvL53w5DnFk80F0e-49" value="Ничья" style="rounded=1;whiteSpace=wrap;html=1;arcSize=40;fontColor=#000000;fillColor=#ffffc0;strokeColor=#ff0000;" vertex="1" parent="1">
          <mxGeometry x="4360" y="670" width="120" height="40" as="geometry" />
        </mxCell>
        <mxCell id="EzVEjvL53w5DnFk80F0e-51" value="" style="edgeStyle=orthogonalEdgeStyle;html=1;verticalAlign=bottom;endArrow=open;endSize=8;strokeColor=#ff0000;rounded=0;exitX=0.5;exitY=0;exitDx=0;exitDy=0;entryX=0;entryY=0.5;entryDx=0;entryDy=0;" edge="1" parent="1" target="EzVEjvL53w5DnFk80F0e-81">
          <mxGeometry relative="1" as="geometry">
            <mxPoint x="4760" y="783" as="targetPoint" />
            <mxPoint x="4640" y="867.5" as="sourcePoint" />
            <Array as="points">
              <mxPoint x="4640" y="770" />
            </Array>
          </mxGeometry>
        </mxCell>
        <mxCell id="EzVEjvL53w5DnFk80F0e-57" value="" style="edgeStyle=orthogonalEdgeStyle;html=1;verticalAlign=bottom;endArrow=open;endSize=8;strokeColor=#ff0000;rounded=0;entryX=0.5;entryY=1;entryDx=0;entryDy=0;" edge="1" parent="1" target="EzVEjvL53w5DnFk80F0e-83">
          <mxGeometry relative="1" as="geometry">
            <mxPoint x="4590" y="595" as="targetPoint" />
            <mxPoint x="4590" y="640" as="sourcePoint" />
            <Array as="points" />
          </mxGeometry>
        </mxCell>
        <mxCell id="EzVEjvL53w5DnFk80F0e-80" value="" style="edgeStyle=orthogonalEdgeStyle;html=1;verticalAlign=bottom;endArrow=open;endSize=8;strokeColor=#ff0000;rounded=0;exitX=0;exitY=0.5;exitDx=0;exitDy=0;" edge="1" parent="1" source="EzVEjvL53w5DnFk80F0e-49">
          <mxGeometry relative="1" as="geometry">
            <mxPoint x="4260" y="690" as="targetPoint" />
            <mxPoint x="4380" y="620" as="sourcePoint" />
            <Array as="points">
              <mxPoint x="4360" y="690" />
            </Array>
          </mxGeometry>
        </mxCell>
        <mxCell id="EzVEjvL53w5DnFk80F0e-81" value="Подсчёт очков" style="rhombus;whiteSpace=wrap;html=1;fontColor=#000000;fillColor=#ffffc0;strokeColor=#ff0000;" vertex="1" parent="1">
          <mxGeometry x="4760" y="730" width="120" height="80" as="geometry" />
        </mxCell>
        <mxCell id="EzVEjvL53w5DnFk80F0e-83" value="Подсчёт очков" style="rhombus;whiteSpace=wrap;html=1;fontColor=#000000;fillColor=#ffffc0;strokeColor=#ff0000;" vertex="1" parent="1">
          <mxGeometry x="4530" y="510" width="120" height="80" as="geometry" />
        </mxCell>
        <mxCell id="EzVEjvL53w5DnFk80F0e-87" value="" style="edgeStyle=orthogonalEdgeStyle;html=1;verticalAlign=bottom;endArrow=open;endSize=8;strokeColor=#ff0000;rounded=0;entryX=0;entryY=0.5;entryDx=0;entryDy=0;exitX=0.5;exitY=1;exitDx=0;exitDy=0;" edge="1" parent="1">
          <mxGeometry relative="1" as="geometry">
            <mxPoint x="4980" y="824.8" as="targetPoint" />
            <mxPoint x="4820" y="810" as="sourcePoint" />
            <Array as="points">
              <mxPoint x="4820" y="825" />
            </Array>
          </mxGeometry>
        </mxCell>
        <mxCell id="EzVEjvL53w5DnFk80F0e-93" value="Набрал 3 очка" style="text;html=1;align=center;verticalAlign=middle;resizable=0;points=[];autosize=1;strokeColor=none;fillColor=none;" vertex="1" parent="1">
          <mxGeometry x="4640" y="520" width="100" height="30" as="geometry" />
        </mxCell>
        <mxCell id="EzVEjvL53w5DnFk80F0e-94" value="" style="edgeStyle=orthogonalEdgeStyle;html=1;verticalAlign=bottom;endArrow=open;endSize=8;strokeColor=#ff0000;rounded=0;exitX=1;exitY=0.5;exitDx=0;exitDy=0;" edge="1" parent="1" source="EzVEjvL53w5DnFk80F0e-83">
          <mxGeometry relative="1" as="geometry">
            <mxPoint x="4750" y="550" as="targetPoint" />
            <mxPoint x="4660" y="550.04" as="sourcePoint" />
            <Array as="points">
              <mxPoint x="4730" y="550" />
              <mxPoint x="4730" y="550" />
            </Array>
          </mxGeometry>
        </mxCell>
        <mxCell id="EzVEjvL53w5DnFk80F0e-96" value="Набрал 3 очка" style="text;html=1;align=center;verticalAlign=middle;resizable=0;points=[];autosize=1;strokeColor=none;fillColor=none;" vertex="1" parent="1">
          <mxGeometry x="4850" y="795" width="100" height="30" as="geometry" />
        </mxCell>
      </root>
    </mxGraphModel>
  </diagram>
</mxfile>
